{"title":"R I P D 2013 CAM XViD-FANTA","uid":8768553,"size":1985354200,"categoryP":"video","categoryS":"movies","magnet":"?xt=urn:btih:366f4de2887537138a829331431d0b510d105ba0&amp;dn=R+I+P+D+2013+CAM+XViD-FANTA&amp;tr=udp%3A%2F%2Ftracker.openbittorrent.com%3A80&amp;tr=udp%3A%2F%2Fopen.demonii.com%3A1337&amp;tr=udp%3A%2F%2Ftracker.coppersurfer.tk%3A6969&amp;tr=udp%3A%2F%2Fexodus.desync.com%3A6969","seeders":1,"leechers":0,"uploader":"scenetime55","files":8,"time":1375393524,"description":"\n &lt;a href=&quot;\nhttp://www.imdb.com/title/tt0790736/&quot; rel=&quot;nofollow&quot; target=&quot;_NEW&quot;&gt;\nhttp://www.imdb.com/title/tt0790736/&lt;/a&gt;\n\n\nA recently slain cop joins a team of undead police officers working for the Rest in Peace Department and tries to find the man who murdered him. \n\n\n\nDirector:\nRobert Schwentke \n\nWriters:\nPhil Hay (screenplay), Matt Manfredi (screenplay) \n\nStars:\nJeff Bridges, Ryan Reynolds, Kevin Bacon\n\nGenres:\n Action |  Comedy |  Crime |  Fantasy \n\nCountry:\nUSA \n\n\n\nFormat                                   : AVI\nFormat/Info                              : Audio Video Interleave\nFormat profile                           : OpenDML\nFormat settings                          : rec\nFile size                                : 1.82 GiB\nDuration                                 : 1h 26mn\nOverall bit rate                         : 3 023 Kbps\nWriting application                      : AVI-Mux GUI 1.17.8.3, Feb 16 201019:42:50\n\nVideo\nID                                       : 0\nFormat                                   : MPEG-4 Visual\nFormat profile                           : Advanced Simple@L5\nFormat settings, BVOP                    : 1\nFormat settings, QPel                    : No\nFormat settings, GMC                     : No warppoints\nFormat settings, Matrix                  : Default (H.263)\nMuxing mode                              : Packed bitstream\nCodec ID                                 : XVID\nCodec ID/Hint                            : XviD\nDuration                                 : 1h 26mn\nBit rate                                 : 2 824 Kbps\nWidth                                    : 660 pixels\nHeight                                   : 330 pixels\nDisplay aspect ratio                     : 2.000\nFrame rate                               : 29.970 fps\nColor space                              : YUV\nChroma subsampling                       : 4:2:0\nBit depth                                : 8 bits\nScan type                                : Progressive\nCompression mode                         : Lossy\nBits/(Pixel*Frame)                       : 0.433\nStream size                              : 1.70 GiB (93%)\nWriting library                          : XviD 64\n\nAudio\nID                                       : 1\nFormat                                   : AC-3\nFormat/Info                              : Audio Coding 3\nMode extension                           : CM (complete main)\nFormat settings, Endianness              : Big\nCodec ID                                 : 2000\nDuration                                 : 1h 26mn\nBit rate mode                            : Constant\nBit rate                                 : 192 Kbps\nChannel(s)                               : 2 channels\nChannel positions                        : Front: L R\nSampling rate                            : 48.0 KHz\nBit depth                                : 16 bits\nCompression mode                         : Lossy\nStream size                              : 118 MiB (6%)\nAlignment                                : Aligned on interleaves\nInterleave, duration                     : 64 ms (1.92 video frames)\nInterleave, preload duration             : 192 ms\nTitle                                    : CrEwSaDe\n\n\nUsed Crewsade's source, just filtred video and audio\n\nEnjoy ;]","torrent":{"xt":"urn:btih:366f4de2887537138a829331431d0b510d105ba0","amp;dn":"R+I+P+D+2013+CAM+XViD-FANTA","amp;tr":["udp%3A%2F%2Ftracker.openbittorrent.com%3A80","udp%3A%2F%2Fopen.demonii.com%3A1337","udp%3A%2F%2Ftracker.coppersurfer.tk%3A6969","udp%3A%2F%2Fexodus.desync.com%3A6969"],"infoHash":"366f4de2887537138a829331431d0b510d105ba0","infoHashBuffer":{"type":"Buffer","data":[54,111,77,226,136,117,55,19,138,130,147,49,67,29,11,81,13,16,91,160]},"announce":[],"urlList":[]}}